<svg width="233" height="55" viewBox="0 0 233 55" fill="none" xmlns="http://www.w3.org/2000/svg">
<path d="M18.4619 26.9963C18.4619 32.313 22.0797 35.2703 27.1448 35.2703C31.4862 35.2703 35.4501 32.9108 35.6703 28.3806H30.6368C30.448 29.7963 29.1582 30.8659 27.1448 30.8659C24.7538 30.8659 23.4954 29.4502 23.4954 26.9963C23.4954 24.5739 24.7538 23.1583 27.1448 23.1583C29.1582 23.1583 30.448 24.2279 30.6368 25.6436H35.6703C35.4501 21.1134 31.4862 18.7539 27.1448 18.7539C22.0797 18.7539 18.4619 21.7111 18.4619 26.9963Z" fill="#3DD7AC"/>
<path d="M35.6708 28.381L35.7337 28.384L35.7369 28.3181H35.6708V28.381ZM30.6373 28.381V28.3181H30.5822L30.5749 28.3727L30.6373 28.381ZM30.6373 25.644L30.5749 25.6523L30.5822 25.7069H30.6373V25.644ZM35.6708 25.644V25.7069H35.7369L35.7337 25.6409L35.6708 25.644ZM18.3994 26.9967C18.3994 29.6701 19.3095 31.7564 20.862 33.1739C22.4137 34.5907 24.6008 35.3336 27.1453 35.3336V35.2077C24.6247 35.2077 22.4703 34.472 20.9469 33.081C19.4241 31.6907 18.5253 29.64 18.5253 26.9967H18.3994ZM27.1453 35.3336C29.3266 35.3336 31.4168 34.7409 32.991 33.5752C34.5665 32.4084 35.6226 30.6689 35.7337 28.384L35.608 28.3779C35.4988 30.6232 34.4629 32.3286 32.9161 33.4741C31.3678 34.6207 29.3053 35.2077 27.1453 35.2077V35.3336ZM35.6708 28.3181H30.6373V28.4439H35.6708V28.3181ZM30.5749 28.3727C30.3914 29.7487 29.1364 30.8034 27.1453 30.8034V30.9292C29.1809 30.9292 30.5056 29.8446 30.6996 28.3893L30.5749 28.3727ZM27.1453 30.8034C25.9623 30.8034 25.0687 30.4535 24.4701 29.8089C23.8708 29.1635 23.5588 28.2136 23.5588 26.9967H23.433C23.433 28.2338 23.7502 29.2186 24.3779 29.8945C25.0062 30.5712 25.9372 30.9292 27.1453 30.9292V30.8034ZM23.5588 26.9967C23.5588 25.7958 23.8707 24.8537 24.47 24.2123C25.0686 23.5714 25.9623 23.2216 27.1453 23.2216V23.0957C25.9372 23.0957 25.0063 23.4537 24.378 24.1264C23.7503 24.7983 23.433 25.7753 23.433 26.9967H23.5588ZM27.1453 23.2216C29.1364 23.2216 30.3914 24.2763 30.5749 25.6523L30.6996 25.6357C30.5056 24.1803 29.1809 23.0957 27.1453 23.0957V23.2216ZM30.6373 25.7069H35.6708V25.5811H30.6373V25.7069ZM35.7337 25.6409C35.6226 23.356 34.5665 21.6165 32.991 20.4497C31.4168 19.284 29.3266 18.6914 27.1453 18.6914V18.8172C29.3053 18.8172 31.3678 19.4043 32.9161 20.5509C34.4629 21.6964 35.4988 23.4017 35.608 25.647L35.7337 25.6409ZM27.1453 18.6914C24.6008 18.6914 22.4137 19.4343 20.8621 20.847C19.3096 22.2605 18.3994 24.339 18.3994 26.9967H18.5253C18.5253 24.3693 19.4241 22.3265 20.9468 20.9401C22.4703 19.5529 24.6247 18.8172 27.1453 18.8172V18.6914Z" fill="#3DD7AC"/>
<path d="M44.3742 27.1149C44.3742 36.6121 36.6482 44.3216 27.1046 44.3216C17.561 44.3216 9.83496 36.6121 9.83496 27.1149C9.83496 17.6177 17.561 9.9082 27.1046 9.9082C36.6482 9.9082 44.3742 17.6177 44.3742 27.1149Z" stroke="#3DD7AC" stroke-width="3.77866"/>
<path d="M40.6931 13.5586C42.4716 15.3371 43.8824 17.4486 44.845 19.7723C45.8075 22.0961 46.3029 24.5867 46.3029 27.102C46.3029 29.6172 45.8075 32.1078 44.845 34.4316C43.8824 36.7554 42.4716 38.8668 40.6931 40.6453L37.9844 37.9367C39.4072 36.5138 40.5359 34.8247 41.3059 32.9657C42.0759 31.1066 42.4723 29.1142 42.4723 27.102C42.4723 25.0898 42.076 23.0973 41.3059 21.2383C40.5359 19.3793 39.4072 17.6901 37.9844 16.2673L40.6931 13.5586Z" fill="#5235D9"/>
<path d="M13.5435 40.6306C11.7649 38.852 10.3541 36.7406 9.39154 34.4168C8.429 32.0931 7.93359 29.6024 7.93359 27.0872C7.93359 24.572 8.429 22.0814 9.39154 19.7576C10.3541 17.4338 11.7649 15.3224 13.5435 13.5439L16.2521 16.2525C14.8293 17.6754 13.7007 19.3645 12.9306 21.2235C12.1606 23.0825 11.7643 25.075 11.7643 27.0872C11.7643 29.0994 12.1606 31.0919 12.9306 32.9509C13.7007 34.8099 14.8293 36.4991 16.2521 37.9219L13.5435 40.6306Z" fill="#5235D9"/>
<path d="M170.292 28.7345L170.752 28.7569L170.775 28.2746H170.292V28.7345ZM165.035 28.7345V28.2746H164.633L164.579 28.6737L165.035 28.7345ZM165.035 25.8761L164.579 25.9369L164.633 26.336H165.035V25.8761ZM170.292 25.8761V26.336H170.775L170.752 25.8537L170.292 25.8761ZM151.86 27.2889C151.86 30.1752 152.846 32.4658 154.56 34.0314C156.269 35.5917 158.656 36.39 161.388 36.39V35.47C158.831 35.47 156.683 34.7241 155.181 33.352C153.684 31.9852 152.78 29.9552 152.78 27.2889H151.86ZM161.388 36.39C163.733 36.39 166.003 35.7535 167.728 34.4762C169.464 33.1909 170.63 31.2673 170.752 28.7569L169.833 28.7122C169.725 30.9331 168.706 32.6072 167.181 33.7369C165.644 34.8744 163.577 35.47 161.388 35.47V36.39ZM170.292 28.2746H165.035V29.1945H170.292V28.2746ZM164.579 28.6737C164.421 29.8622 163.328 30.8702 161.388 30.8702V31.7902C163.654 31.7902 165.255 30.5639 165.491 28.7953L164.579 28.6737ZM161.388 30.8702C160.232 30.8702 159.415 30.5303 158.883 29.9576C158.346 29.3794 158.037 28.4966 158.037 27.2889H157.117C157.117 28.6439 157.465 29.7818 158.209 30.5836C158.959 31.3908 160.048 31.7902 161.388 31.7902V30.8702ZM158.037 27.2889C158.037 26.099 158.346 25.2245 158.882 24.6499C159.414 24.0804 160.231 23.7404 161.388 23.7404V22.8204C160.048 22.8204 158.959 23.2197 158.21 24.0219C157.465 24.8191 157.117 25.9488 157.117 27.2889H158.037ZM161.388 23.7404C163.328 23.7404 164.421 24.7484 164.579 25.9369L165.491 25.8153C165.255 24.0467 163.654 22.8204 161.388 22.8204V23.7404ZM165.035 26.336H170.292V25.4161H165.035V26.336ZM170.752 25.8537C170.63 23.3433 169.464 21.4197 167.728 20.1344C166.003 18.8571 163.733 18.2206 161.388 18.2206V19.1406C163.577 19.1406 165.644 19.7362 167.181 20.8737C168.706 22.0034 169.725 23.6775 169.833 25.8984L170.752 25.8537ZM161.388 18.2206C158.656 18.2206 156.27 19.0188 154.561 20.5747C152.846 22.1358 151.86 24.4182 151.86 27.2889H152.78C152.78 24.6397 153.683 22.618 155.18 21.2549C156.683 19.8866 158.831 19.1406 161.388 19.1406V18.2206ZM171.465 27.2889C171.465 30.315 172.547 32.6099 174.35 34.1409C176.142 35.6628 178.599 36.39 181.289 36.39V35.47C178.754 35.47 176.529 34.7845 174.945 33.4396C173.372 32.1039 172.385 30.0783 172.385 27.2889H171.465ZM181.289 36.39C183.963 36.39 186.411 35.6624 188.199 34.1405C189.997 32.6096 191.08 30.3149 191.08 27.2889H190.16C190.16 30.0783 189.172 32.1042 187.603 33.44C186.023 34.7848 183.806 35.47 181.289 35.47V36.39ZM191.08 27.2889C191.08 24.2784 189.997 21.992 188.198 20.4655C186.411 18.9481 183.963 18.2206 181.289 18.2206V19.1406C183.806 19.1406 186.023 19.8258 187.603 21.1669C189.172 22.4989 190.16 24.5167 190.16 27.2889H191.08ZM181.289 18.2206C178.599 18.2206 176.142 18.9478 174.35 20.4652C172.547 21.9917 171.465 24.2784 171.465 27.2889H172.385C172.385 24.5167 173.372 22.4992 174.945 21.1673C176.529 19.8261 178.754 19.1406 181.289 19.1406V18.2206ZM177.641 27.2889C177.641 25.9992 178.015 25.1353 178.61 24.5883C179.212 24.035 180.111 23.7404 181.289 23.7404V22.8204C179.969 22.8204 178.815 23.1501 177.987 23.9111C177.153 24.6783 176.722 25.8186 176.722 27.2889H177.641ZM181.289 23.7404C182.449 23.7404 183.339 24.0343 183.937 24.5874C184.529 25.1346 184.903 25.9992 184.903 27.2889H185.823C185.823 25.8186 185.391 24.679 184.562 23.912C183.739 23.1508 182.593 22.8204 181.289 22.8204V23.7404ZM184.903 27.2889C184.903 28.5965 184.528 29.4693 183.936 30.0201C183.339 30.5763 182.449 30.8702 181.289 30.8702V31.7902C182.593 31.7902 183.74 31.4597 184.563 30.6935C185.392 29.9219 185.823 28.774 185.823 27.2889H184.903ZM181.289 30.8702C180.111 30.8702 179.212 30.5756 178.611 30.0192C178.016 29.4686 177.641 28.5965 177.641 27.2889H176.722C176.722 28.774 177.152 29.9226 177.986 30.6944C178.814 31.4604 179.969 31.7902 181.289 31.7902V30.8702ZM211.586 35.6015V36.0614H212.046V35.6015H211.586ZM211.586 11.4522H212.046V10.9922H211.586V11.4522ZM206.329 11.4522V10.9922H205.869V11.4522H206.329ZM206.329 20.0277H205.869V20.1023L205.893 20.1731L206.329 20.0277ZM207.315 22.9847V23.4447H207.953L207.752 22.8393L207.315 22.9847ZM206.001 22.9847L205.572 23.1511L205.686 23.4447H206.001V22.9847ZM206.001 31.6259V31.1659H205.686L205.572 31.4595L206.001 31.6259ZM207.315 31.6259L207.752 31.7713L207.953 31.1659H207.315V31.6259ZM206.329 34.5829L205.893 34.4375L205.869 34.5083V34.5829H206.329ZM206.329 35.6015H205.869V36.0614H206.329V35.6015ZM212.046 35.6015V11.4522H211.126V35.6015H212.046ZM211.586 10.9922H206.329V11.9122H211.586V10.9922ZM205.869 11.4522V20.0277H206.789V11.4522H205.869ZM205.893 20.1731L206.879 23.1302L207.752 22.8393L206.766 19.8822L205.893 20.1731ZM207.315 22.5247H206.001V23.4447H207.315V22.5247ZM206.43 22.8183C205.987 21.6777 205.341 20.5177 204.237 19.6461C203.126 18.7694 201.599 18.2206 199.463 18.2206V19.1406C201.433 19.1406 202.748 19.6431 203.666 20.3682C204.591 21.0984 205.16 22.0904 205.572 23.1511L206.43 22.8183ZM199.463 18.2206C196.923 18.2206 194.989 19.2628 193.701 20.943C192.424 22.6088 191.807 24.8681 191.807 27.2889H192.727C192.727 25.0112 193.309 22.9664 194.431 21.5026C195.542 20.0533 197.205 19.1406 199.463 19.1406V18.2206ZM191.807 27.2889C191.807 29.7096 192.424 31.9766 193.7 33.6502C194.987 35.3384 196.922 36.39 199.463 36.39V35.47C197.206 35.47 195.543 34.5502 194.432 33.0925C193.309 31.6201 192.727 29.5666 192.727 27.2889H191.807ZM199.463 36.39C201.599 36.39 203.126 35.8412 204.237 34.9645C205.341 34.0929 205.987 32.9329 206.43 31.7923L205.572 31.4595C205.16 32.5202 204.591 33.5122 203.666 34.2424C202.748 34.9675 201.433 35.47 199.463 35.47V36.39ZM206.001 32.0859H207.315V31.1659H206.001V32.0859ZM206.879 31.4804L205.893 34.4375L206.766 34.7284L207.752 31.7713L206.879 31.4804ZM205.869 34.5829V35.6015H206.789V34.5829H205.869ZM206.329 36.0614H211.586V35.1415H206.329V36.0614ZM205.869 27.2889C205.869 28.5988 205.502 29.4645 204.883 30.0123C204.253 30.5696 203.282 30.8702 201.927 30.8702V31.7902C203.397 31.7902 204.628 31.4665 205.492 30.7013C206.368 29.9267 206.789 28.7717 206.789 27.2889H205.869ZM201.927 30.8702C200.572 30.8702 199.601 30.5696 198.971 30.0123C198.351 29.4645 197.984 28.5988 197.984 27.2889H197.064C197.064 28.7717 197.485 29.9267 198.361 30.7013C199.226 31.4665 200.456 31.7902 201.927 31.7902V30.8702ZM197.984 27.2889C197.984 25.979 198.351 25.123 198.968 24.5838C199.598 24.0339 200.569 23.7404 201.927 23.7404V22.8204C200.459 22.8204 199.229 23.1347 198.363 23.8909C197.485 24.6577 197.064 25.806 197.064 27.2889H197.984ZM201.927 23.7404C203.284 23.7404 204.256 24.0339 204.885 24.5838C205.502 25.123 205.869 25.979 205.869 27.2889H206.789C206.789 25.806 206.368 24.6577 205.49 23.891C204.625 23.1347 203.395 22.8204 201.927 22.8204V23.7404ZM231.676 29.7531L232.132 29.8155L232.203 29.2931H231.676V29.7531ZM226.419 29.7531V29.2931H226.064L225.974 29.636L226.419 29.7531ZM218.501 28.406V27.946H218.041V28.406H218.501ZM231.084 28.406V28.866H231.544V28.406H231.084ZM218.501 25.4489H218.041V25.9089H218.501V25.4489ZM226.156 25.4489V25.9089H226.616V25.4489H226.156ZM213.112 27.0917C213.112 29.5338 213.873 31.8643 215.496 33.5882C217.125 35.3177 219.579 36.39 222.87 36.39V35.47C219.788 35.47 217.593 34.4724 216.166 32.9574C214.734 31.4367 214.032 29.3481 214.032 27.0917H213.112ZM222.87 36.39C228.846 36.39 231.771 32.446 232.132 29.8155L231.22 29.6906C230.923 31.8572 228.395 35.47 222.87 35.47V36.39ZM231.676 29.2931H226.419V30.2131H231.676V29.2931ZM225.974 29.636C225.729 30.5657 224.654 31.1987 222.87 31.1987V32.1187C224.767 32.1187 226.451 31.4376 226.864 29.8701L225.974 29.636ZM222.87 31.1987C221.437 31.1987 220.461 30.875 219.852 30.3878C219.256 29.9116 218.961 29.2387 218.961 28.406H218.041C218.041 29.4789 218.435 30.4323 219.277 31.1062C220.105 31.7689 221.314 32.1187 222.87 32.1187V31.1987ZM218.501 28.866H231.084V27.946H218.501V28.866ZM231.544 28.406V26.7632H230.625V28.406H231.544ZM231.544 26.7632C231.544 24.1327 230.595 21.9829 228.94 20.4947C227.291 19.0115 224.98 18.2206 222.312 18.2206V19.1406C224.802 19.1406 226.878 19.8774 228.325 21.1788C229.767 22.4752 230.625 24.3666 230.625 26.7632H231.544ZM222.312 18.2206C219.64 18.2206 217.334 19.0387 215.693 20.5794C214.048 22.1236 213.112 24.3541 213.112 27.0917H214.032C214.032 24.5724 214.887 22.5973 216.322 21.2502C217.761 19.8996 219.826 19.1406 222.312 19.1406V18.2206ZM218.961 25.4489C218.961 24.9407 219.136 24.4589 219.596 24.0919C220.071 23.7131 220.906 23.4119 222.312 23.4119V22.4919C220.793 22.4919 219.722 22.8149 219.023 23.3725C218.309 23.9419 218.041 24.7087 218.041 25.4489H218.961ZM222.312 23.4119C223.717 23.4119 224.562 23.713 225.046 24.0938C225.516 24.4631 225.696 24.9456 225.696 25.4489H226.616C226.616 24.7037 226.336 23.9377 225.615 23.3706C224.908 22.815 223.831 22.4919 222.312 22.4919V23.4119ZM226.156 24.9889H218.501V25.9089H226.156V24.9889Z" fill="#5235D9"/>
<path d="M71.4463 30.4809C71.4463 27.031 68.4892 26.2096 65.2693 25.1582C62.6409 24.3039 60.998 23.8111 60.998 23.0225C60.998 22.3654 61.688 22.0697 62.9366 22.0697C64.7436 22.0697 65.6308 22.9568 65.6308 24.1396H70.8877C70.8877 20.9197 68.5878 18.127 62.9694 18.127C58.4024 18.127 55.7411 19.8355 55.7411 22.7925C55.7411 26.5053 59.5195 27.3267 62.608 28.3452C65.2693 29.2323 66.1893 29.4623 66.1893 30.3166C66.1893 31.1051 65.3022 31.4337 63.8894 31.4337C61.1295 31.4337 60.2424 30.3166 60.2424 29.0352H54.9854C54.9854 32.9122 57.6139 35.3764 63.7251 35.3764C69.4421 35.3764 71.4463 33.2736 71.4463 30.4809ZM82.0922 30.7766C79.5623 30.7766 78.6751 29.6266 78.6751 26.6038V18.4555H73.4182V27.4252C73.4182 32.5508 75.9809 35.3764 80.2194 35.3764C83.7678 35.3764 85.8378 33.0436 86.4949 30.0866H87.8091L86.8235 33.0436V35.0479H92.0804V18.4555H86.8235V24.5996C86.8235 29.2652 84.9507 30.7766 82.0922 30.7766ZM94.6989 18.4555V41.2905H99.9559V34.0293L98.9701 31.0723H100.285C101.139 33.2736 102.716 35.3764 106.823 35.3764C111.62 35.3764 114.019 31.4665 114.019 26.7681C114.019 22.0697 111.62 18.127 106.823 18.127C102.716 18.127 101.139 20.2298 100.285 22.4311H98.9701L99.9559 19.4741V18.4555H94.6989ZM99.9559 26.7681C99.9559 23.9425 101.533 22.7268 104.359 22.7268C107.185 22.7268 108.762 23.9425 108.762 26.7681C108.762 29.5937 107.185 30.7766 104.359 30.7766C101.533 30.7766 99.9559 29.5937 99.9559 26.7681ZM115.668 26.5381C115.668 31.2365 118.592 35.3764 124.966 35.3764C130.716 35.3764 133.443 31.598 133.772 29.1995H128.515C128.186 30.448 126.806 31.1051 124.966 31.1051C121.976 31.1051 120.596 29.758 120.596 27.8524H133.18V26.2096C133.18 21.1826 129.566 18.127 124.408 18.127C119.249 18.127 115.668 21.2811 115.668 26.5381ZM120.596 24.8953C120.596 23.6468 121.484 22.3983 124.408 22.3983C127.332 22.3983 128.252 23.6468 128.252 24.8953H120.596ZM136.058 35.0479H141.315V22.8582L149.759 23.0554V18.4555L138.884 18.1927C137.077 18.1598 136.058 19.1455 136.058 20.9526V35.0479Z" fill="#5235D9"/>
</svg>
